<?xml version="1.0" encoding="UTF-8"?>
<svg id="Layer_1" xmlns="http://www.w3.org/2000/svg" version="1.1" viewBox="0 0 800 800">
  <!-- Generator: Adobe Illustrator 29.4.0, SVG Export Plug-In . SVG Version: 2.1.0 Build 152)  -->
  <defs>
    <style>
      .st0 {
        fill: #fff;
      }
    </style>
  </defs>
  <g id="Layer_2">
    <g>
      <path d="M400,20C190.13,20,20,190.58,20,401.01c20.02,505.4,740.06,505.26,760,0,0-210.42-170.14-381-380-381ZM400,619.19c-120.29,0-218.16-97.86-218.16-218.16,5.92-149.3,117.23-217.07,218.15-217.07h.02c100.93,0,212.25,67.78,218.14,216.58.02,120.79-97.86,218.65-218.14,218.65Z"/>
      <path d="M400.02,208.82c-127.57,0-189.63,99.89-193.32,192.7,0,106.1,86.72,192.81,193.3,192.81s193.3-86.71,193.3-193.3c-3.66-92.31-65.71-192.2-193.28-192.22Z"/>
    </g>
  </g>
  <path class="st0" d="M328.44,420.22c0,20.6,0,62.94,0,83.68l174.42-107.34-174.42-98.39v122.05Z"/>
</svg>